<svg xmlns="http://www.w3.org/2000/svg" xmlns:xlink="http://www.w3.org/1999/xlink" width="50" zoomAndPan="magnify" viewBox="0 0 37.5 37.499999" height="50" preserveAspectRatio="xMidYMid meet" version="1.0"><defs><g/><clipPath id="abb3970d63"><path d="M 1.054688 1.054688 L 35.839844 1.054688 L 35.839844 35.839844 L 1.054688 35.839844 Z M 1.054688 1.054688 " clip-rule="nonzero"/></clipPath></defs><g clip-path="url(#abb3970d63)"><path fill="#753192" d="M 35.164062 18.449219 L 35.632812 17.269531 C 36.03125 16.253906 35.847656 15.101562 35.15625 14.257812 L 34.347656 13.28125 L 34.425781 12.015625 C 34.492188 10.925781 33.964844 9.886719 33.042969 9.300781 L 31.972656 8.621094 L 31.65625 7.394531 C 31.382812 6.335938 30.558594 5.511719 29.503906 5.238281 L 28.273438 4.921875 L 27.59375 3.851562 C 27.007812 2.933594 25.96875 2.402344 24.878906 2.46875 L 23.613281 2.546875 L 22.636719 1.742188 C 21.792969 1.046875 20.640625 0.863281 19.628906 1.265625 L 18.449219 1.730469 L 17.269531 1.265625 C 16.253906 0.863281 15.101562 1.046875 14.261719 1.742188 L 13.28125 2.546875 L 12.015625 2.46875 C 10.933594 2.402344 9.886719 2.929688 9.300781 3.851562 L 8.621094 4.921875 L 7.390625 5.238281 C 6.335938 5.511719 5.511719 6.335938 5.238281 7.394531 L 4.921875 8.621094 L 3.851562 9.300781 C 2.929688 9.886719 2.402344 10.925781 2.46875 12.015625 L 2.546875 13.28125 L 1.742188 14.257812 C 1.046875 15.101562 0.863281 16.253906 1.265625 17.269531 L 1.730469 18.449219 L 1.265625 19.625 C 0.863281 20.640625 1.046875 21.792969 1.742188 22.636719 L 2.546875 23.613281 L 2.46875 24.878906 C 2.402344 25.96875 2.929688 27.007812 3.851562 27.59375 L 4.921875 28.273438 L 5.238281 29.503906 C 5.511719 30.558594 6.335938 31.382812 7.390625 31.65625 L 8.621094 31.972656 L 9.300781 33.042969 C 9.886719 33.964844 10.929688 34.496094 12.015625 34.425781 L 13.28125 34.347656 L 14.257812 35.15625 C 15.101562 35.851562 16.253906 36.03125 17.265625 35.632812 L 18.449219 35.164062 L 19.628906 35.632812 C 19.984375 35.773438 20.355469 35.839844 20.726562 35.839844 C 21.414062 35.839844 22.089844 35.605469 22.632812 35.15625 L 23.613281 34.347656 L 24.878906 34.425781 C 25.960938 34.492188 27.007812 33.964844 27.59375 33.042969 L 28.273438 31.972656 L 29.503906 31.65625 C 30.558594 31.382812 31.382812 30.558594 31.65625 29.503906 L 31.972656 28.273438 L 33.042969 27.59375 C 33.960938 27.007812 34.492188 25.96875 34.425781 24.878906 L 34.347656 23.613281 L 35.152344 22.636719 C 35.847656 21.792969 36.03125 20.640625 35.628906 19.628906 Z M 35.164062 18.449219 " fill-opacity="1" fill-rule="nonzero"/></g><g fill="#ffffff" fill-opacity="1"><g transform="translate(3.133995, 24.015969)"><g><path d="M 9.703125 0 L 7.59375 0 L 6.84375 -2.328125 L 2.96875 -2.328125 L 2.203125 0 L 0.15625 0 L 3.640625 -10.109375 L 6.203125 -10.109375 Z M 4.796875 -8 L 3.5 -4.015625 L 6.28125 -4.015625 L 4.984375 -8 Z M 4.796875 -8 "/></g></g></g><g fill="#ffffff" fill-opacity="1"><g transform="translate(12.975025, 24.015969)"><g><path d="M 5.21875 -10.109375 C 5.9375 -10.109375 6.550781 -9.972656 7.0625 -9.703125 C 7.582031 -9.441406 7.972656 -9.070312 8.234375 -8.59375 C 8.503906 -8.113281 8.640625 -7.5625 8.640625 -6.9375 C 8.640625 -6.300781 8.503906 -5.742188 8.234375 -5.265625 C 7.972656 -4.796875 7.582031 -4.425781 7.0625 -4.15625 C 6.550781 -3.894531 5.9375 -3.765625 5.21875 -3.765625 L 3.3125 -3.765625 L 3.3125 0 L 1.3125 0 L 1.3125 -10.109375 Z M 4.953125 -5.34375 C 6.066406 -5.34375 6.625 -5.875 6.625 -6.9375 C 6.625 -7.988281 6.066406 -8.515625 4.953125 -8.515625 L 3.3125 -8.515625 L 3.3125 -5.34375 Z M 4.953125 -5.34375 "/></g></g></g><g fill="#ffffff" fill-opacity="1"><g transform="translate(22.201417, 24.015969)"><g><path d="M 3.3125 0 L 1.3125 0 L 1.3125 -10.109375 L 3.3125 -10.109375 Z M 3.3125 0 "/></g></g></g><g fill="#ffffff" fill-opacity="1"><g transform="translate(26.828424, 24.015969)"><g><path d="M 3.5625 0.140625 C 3.039062 0.140625 2.5625 0.0820312 2.125 -0.03125 C 1.695312 -0.15625 1.328125 -0.320312 1.015625 -0.53125 C 0.710938 -0.75 0.488281 -1 0.34375 -1.28125 L 1.40625 -2.421875 L 1.5625 -2.421875 C 1.8125 -2.085938 2.109375 -1.832031 2.453125 -1.65625 C 2.796875 -1.488281 3.171875 -1.40625 3.578125 -1.40625 C 3.953125 -1.40625 4.234375 -1.46875 4.421875 -1.59375 C 4.609375 -1.726562 4.703125 -1.921875 4.703125 -2.171875 C 4.703125 -2.367188 4.632812 -2.53125 4.5 -2.65625 C 4.363281 -2.789062 4.144531 -2.894531 3.84375 -2.96875 L 2.828125 -3.21875 C 2.078125 -3.394531 1.523438 -3.664062 1.171875 -4.03125 C 0.828125 -4.40625 0.65625 -4.878906 0.65625 -5.453125 C 0.65625 -5.929688 0.773438 -6.34375 1.015625 -6.6875 C 1.253906 -7.039062 1.59375 -7.304688 2.03125 -7.484375 C 2.476562 -7.671875 2.992188 -7.765625 3.578125 -7.765625 C 4.265625 -7.765625 4.832031 -7.664062 5.28125 -7.46875 C 5.738281 -7.269531 6.09375 -7.003906 6.34375 -6.671875 L 5.328125 -5.578125 L 5.1875 -5.578125 C 4.96875 -5.816406 4.726562 -5.988281 4.46875 -6.09375 C 4.207031 -6.207031 3.910156 -6.265625 3.578125 -6.265625 C 2.828125 -6.265625 2.453125 -6.03125 2.453125 -5.5625 C 2.453125 -5.363281 2.519531 -5.203125 2.65625 -5.078125 C 2.800781 -4.953125 3.050781 -4.847656 3.40625 -4.765625 L 4.34375 -4.5625 C 5.113281 -4.394531 5.675781 -4.128906 6.03125 -3.765625 C 6.394531 -3.398438 6.578125 -2.90625 6.578125 -2.28125 C 6.578125 -1.800781 6.457031 -1.375 6.21875 -1 C 5.976562 -0.632812 5.628906 -0.351562 5.171875 -0.15625 C 4.722656 0.0390625 4.1875 0.140625 3.5625 0.140625 Z M 3.5625 0.140625 "/></g></g></g></svg>